Coordinates
version=1
nRows=11
nColumns=40
inDegrees=yes

Units are S.I. units (second, meters, Newtons, ...)
Angles are in degrees.

endheader
time	pelvis_tilt	pelvis_list	pelvis_rotation	pelvis_tx	pelvis_ty	pelvis_tz	hip_flexion_r	hip_adduction_r	hip_rotation_r	knee_angle_r	knee_angle_r_beta	ankle_angle_r	subtalar_angle_r	mtp_angle_r	hip_flexion_l	hip_adduction_l	hip_rotation_l	knee_angle_l	knee_angle_l_beta	ankle_angle_l	subtalar_angle_l	mtp_angle_l	lumbar_extension	lumbar_bending	lumbar_rotation	arm_flex_r	arm_add_r	arm_rot_r	elbow_flex_r	pro_sup_r	wrist_flex_r	wrist_dev_r	arm_flex_l	arm_add_l	arm_rot_l	elbow_flex_l	pro_sup_l	wrist_flex_l	wrist_dev_l
     25.05750000	     -5.79894685	     -2.87824659	    -10.85852287	      0.92685331	      0.92229150	      0.48568656	     21.00838508	      0.79039048	     -4.20188702	     24.49744721	     24.49744721	     10.02422284	     -2.87922786	     -1.04539830	      0.44362495	     -5.50282702	    -12.06917042	     21.97659393	     21.97659393	     20.24639836	     -8.57035135	      0.57056021	     -9.71333019	      9.34003332	     -1.22802759	     -5.85711525	    -13.72430013	    -22.46994154	     36.53731227	     46.40007803	      0.00000000	      0.00000000	     20.72743124	    -15.49779554	    -17.48164620	     87.46325036	     48.52295498	      0.00000000	      0.00000000
     25.07628571	     -5.94732629	     -3.08685588	    -10.37504868	      0.92649428	      0.92339598	      0.49030668	     20.27257277	      1.20934366	     -4.76152096	     23.74438995	     23.74438995	     10.10342431	     -2.75971943	     -0.88841530	      1.12483847	     -6.30565814	    -11.55794668	     23.55953570	     23.55953570	     19.67780986	     -8.97530131	      0.19923169	     -9.74523409	      9.33740760	     -1.25003395	     -4.78947414	    -14.33885603	    -22.46440809	     37.13508280	     46.38231590	      0.00000000	      0.00000000	     19.60043663	    -15.01142499	    -16.93999053	     86.13512200	     48.45507576	      0.00000000	      0.00000000
     25.09507143	     -6.09059773	     -3.22292036	     -9.86184889	      0.92597375	      0.92426963	      0.49490127	     19.61516154	      1.56983284	     -5.23487996	     23.09068368	     23.09068368	     10.21551387	     -2.79292805	     -0.78853478	      1.98871290	     -7.09576116	    -11.08764010	     25.35619359	     25.35619359	     18.32812847	     -9.50458682	     -2.02799458	     -9.62580817	      9.24185451	     -0.86682122	     -4.21665985	    -15.13817288	    -21.86966895	     37.89875584	     46.30746614	      0.00000000	      0.00000000	     19.44856394	    -14.61894760	    -15.35755105	     82.30812184	     48.27751839	      0.00000000	      0.00000000
     25.11385714	     -6.20576413	     -3.41365559	     -9.32474319	      0.92530807	      0.92498433	      0.49945605	     18.95464873	      1.97382620	     -5.78261031	     22.48162560	     22.48162560	     10.37221256	     -2.74027455	     -0.71428462	      3.15209951	     -7.93924197	    -10.31122813	     27.75999693	     27.75999693	     17.45439030	    -10.21527619	     -2.77864204	     -9.64249127	      9.14394234	     -1.07033953	     -3.02526149	    -15.73886207	    -21.85088488	     38.57417184	     46.28627575	      0.00000000	      0.00000000	     18.20754893	    -14.32326892	    -14.75932418	     80.49885933	     48.19714474	      0.00000000	      0.00000000
     25.13264286	     -6.14370255	     -3.58235077	     -8.86403332	      0.92457258	      0.92559013	      0.50406684	     18.25648904	      2.35171421	     -6.19278593	     22.13448354	     22.13448354	     10.64111955	     -2.74927526	     -0.71571055	      4.31037892	     -8.73248529	     -9.50885319	     30.49098106	     30.49098106	     16.45353030	    -11.01809052	     -3.52224596	     -9.85083801	      8.94014380	     -1.15024815	     -1.67708532	    -16.31400044	    -21.78409600	     39.18700711	     46.26705458	      0.00000000	      0.00000000	     17.03195545	    -13.90828812	    -14.13338250	     78.52033123	     48.11219308	      0.00000000	      0.00000000
     25.15142857	     -6.28320218	     -3.74195733	     -8.25028645	      0.92352255	      0.92558456	      0.50847111	     17.89341227	      2.72530644	     -6.65726020	     21.94649250	     21.94649250	     10.91131913	     -3.02592747	     -0.63690508	      5.82306862	     -9.48040390	     -8.34700056	     33.09371420	     33.09371420	     13.10264245	    -13.33753184	     -9.01877233	     -9.64515074	      8.82975026	     -0.44841785	     -1.47462194	    -17.15742501	    -20.91964450	     40.60132104	     46.14036113	      0.00000000	      0.00000000	     17.56520417	    -13.70498417	    -11.25728712	     72.15108696	     47.82054604	      0.00000000	      0.00000000
     25.17021429	     -6.28337863	     -3.94274183	     -7.65850763	      0.92233478	      0.92535438	      0.51283018	     17.51386223	      3.11320114	     -7.11513784	     21.98402956	     21.98402956	     11.24440804	     -3.31876375	     -0.67960937	      7.64749006	    -10.26706721	     -7.10841247	     36.69368367	     36.69368367	     11.80269919	    -14.43216408	     -9.46777148	     -9.74794749	      8.64245596	     -0.81761839	      0.11925423	    -17.56216123	    -20.87894764	     41.29159117	     46.12001887	      0.00000000	      0.00000000	     16.26821076	    -13.46965272	    -10.71175140	     69.57757777	     47.73239434	      0.00000000	      0.00000000
     25.18900000	     -6.22698281	     -4.10890642	     -7.06160716	      0.92101488	      0.92475002	      0.51704330	     17.26626961	      3.46311033	     -7.42842962	     22.35102257	     22.35102257	     11.80266781	     -3.81939163	     -0.52723034	      9.57692855	    -10.87681962	     -5.63571976	     40.45579637	     40.45579637	     10.23946369	    -15.80082960	     -9.91807956	     -9.79082668	      8.40627935	     -0.43876019	      1.27661805	    -18.21102085	    -20.31874769	     41.77901307	     46.06982721	      0.00000000	      0.00000000	     16.49545986	    -12.96320519	     -9.07143111	     63.58866880	     47.53062738	      0.00000000	      0.00000000
     25.20778571	     -6.10513156	     -4.30774286	     -6.44246518	      0.91948376	      0.92376470	      0.52107448	     17.10626317	      3.82603808	     -7.69377293	     22.97434338	     22.97434338	     12.42977986	     -4.48202185	     -0.40506104	     11.68145802	    -11.43683500	     -4.11722778	     44.55996647	     44.55996647	      9.15713093	    -16.73371363	     -8.70742338	     -9.96375142	      8.19291118	     -0.48083935	      2.65930299	    -18.63291320	    -20.15113542	     42.93262987	     46.01743095	      0.00000000	      0.00000000	     16.08784385	    -12.59274330	     -7.75761330	     58.85138821	     47.36846936	      0.00000000	      0.00000000
     25.22657143	     -5.97374573	     -4.46683439	     -5.79261194	      0.91777129	      0.92231927	      0.52483052	     17.10948763	      4.12135402	     -7.94842955	     23.87270931	     23.87270931	     13.14541939	     -5.28570201	     -0.24443594	     13.95204312	    -11.77935754	     -2.43631730	     48.81548660	     48.81548660	      8.70009113	    -17.31330596	     -5.79858112	    -10.14221706	      7.92739842	     -0.39392387	      4.00124867	    -19.03234310	    -20.02672991	     44.20026332	     45.96308760	      0.00000000	      0.00000000	     15.77906907	    -12.12637222	     -6.51277229	     53.88083949	     47.21076407	      0.00000000	      0.00000000
     25.24535714	     -5.74819161	     -4.61856540	     -5.17155297	      0.91597131	      0.92059551	      0.52845542	     17.12671164	      4.43437836	     -7.99718917	     24.94503575	     24.94503575	     13.87758426	     -6.39123211	     -0.28584239	     16.09031132	    -12.04109751	     -0.92903144	     52.79546567	     52.79546567	      8.01293277	    -17.92246231	     -3.46034139	    -10.45408498	      7.62428625	     -0.94630860	      6.06440882	    -19.07721975	    -19.94401435	     45.62369240	     45.91425550	      0.00000000	      0.00000000	     14.66578469	    -11.95875061	     -5.80598371	     50.03520793	     47.09766282	      0.00000000	      0.00000000
